<mxfile host="app.diagrams.net" modified="2023-08-03T01:22:41.702Z" agent="Mozilla/5.0 (Macintosh; Intel Mac OS X 10_15_7) AppleWebKit/537.36 (KHTML, like Gecko) Chrome/115.0.0.0 Safari/537.36" etag="84DcAM0uU1TxdpMIOLJI" version="21.6.6" type="device">
  <diagram id="KMcxD_Hfu1oPM4u3RyKm" name="Page-1">
    <mxGraphModel dx="1536" dy="-194" grid="1" gridSize="10" guides="1" tooltips="1" connect="1" arrows="1" fold="1" page="1" pageScale="1" pageWidth="850" pageHeight="1100" math="0" shadow="0">
      <root>
        <mxCell id="0" />
        <mxCell id="1" parent="0" />
        <mxCell id="OP0uMOmqRfhRsHybBiB3-138" value="" style="rounded=0;whiteSpace=wrap;html=1;fillColor=#dfdfdf;" parent="1" vertex="1">
          <mxGeometry x="137.29" y="1360" width="283.71" height="104" as="geometry" />
        </mxCell>
        <mxCell id="OP0uMOmqRfhRsHybBiB3-137" value="" style="rounded=0;whiteSpace=wrap;html=1;fillColor=#dfdfdf;" parent="1" vertex="1">
          <mxGeometry x="139" y="1509" width="282" height="104" as="geometry" />
        </mxCell>
        <mxCell id="OP0uMOmqRfhRsHybBiB3-136" value="" style="rounded=0;whiteSpace=wrap;html=1;fillColor=#dfdfdf;" parent="1" vertex="1">
          <mxGeometry x="139" y="1658" width="282" height="104" as="geometry" />
        </mxCell>
        <mxCell id="OP0uMOmqRfhRsHybBiB3-132" value="" style="rounded=0;whiteSpace=wrap;html=1;fillColor=#dfdfdf;" parent="1" vertex="1">
          <mxGeometry x="139" y="1808" width="282" height="104" as="geometry" />
        </mxCell>
        <mxCell id="KvPRdfRzhTT3knoHsxit-51" value="&lt;span style=&quot;&quot;&gt;Node 3&lt;/span&gt;" style="text;html=1;strokeColor=none;fillColor=none;align=center;verticalAlign=middle;whiteSpace=wrap;rounded=0;shadow=0;fontSize=15;fontStyle=1" parent="1" vertex="1">
          <mxGeometry x="139.83" y="1737" width="200.17" height="20" as="geometry" />
        </mxCell>
        <mxCell id="fedMn2WOfF90to9gc-yZ-52" value="&lt;span style=&quot;&quot;&gt;Node 1&lt;/span&gt;" style="text;html=1;strokeColor=none;fillColor=none;align=center;verticalAlign=middle;whiteSpace=wrap;rounded=0;shadow=0;fontSize=15;fontStyle=1" parent="1" vertex="1">
          <mxGeometry x="137.29" y="1437" width="202.71" height="20" as="geometry" />
        </mxCell>
        <mxCell id="TKbhqmxpsX92xjRi5uJJ-1162" value="&lt;span style=&quot;font-weight: normal&quot;&gt;Front-End and Back-End Ports&lt;br&gt;Connect to Redundant Switches&lt;/span&gt;" style="text;html=1;strokeColor=none;fillColor=none;align=center;verticalAlign=middle;whiteSpace=wrap;rounded=0;shadow=0;fontSize=15;fontStyle=1" parent="1" vertex="1">
          <mxGeometry x="162" y="1247" width="598" height="40" as="geometry" />
        </mxCell>
        <mxCell id="TKbhqmxpsX92xjRi5uJJ-1164" value="" style="verticalLabelPosition=bottom;shadow=0;dashed=0;align=center;html=1;verticalAlign=top;strokeWidth=1;shape=mxgraph.mockup.markup.curlyBrace;fontColor=#66B2FF;" parent="1" vertex="1">
          <mxGeometry x="251" y="1292.5" width="420" height="20" as="geometry" />
        </mxCell>
        <mxCell id="TKbhqmxpsX92xjRi5uJJ-1170" value="&lt;span style=&quot;font-weight: normal&quot;&gt;Management LAN Ports&lt;br&gt;Connect to Out-of-Band&lt;br&gt;Management Switch&amp;nbsp;&lt;/span&gt;" style="text;html=1;strokeColor=none;fillColor=none;align=center;verticalAlign=middle;whiteSpace=wrap;rounded=0;shadow=0;fontSize=15;fontStyle=1" parent="1" vertex="1">
          <mxGeometry x="-0.33000000000000007" y="1107" width="230" height="40" as="geometry" />
        </mxCell>
        <mxCell id="TKbhqmxpsX92xjRi5uJJ-1171" value="" style="verticalLabelPosition=bottom;shadow=0;dashed=0;align=center;html=1;verticalAlign=top;strokeWidth=1;shape=mxgraph.mockup.markup.curlyBrace;fontColor=#66B2FF;" parent="1" vertex="1">
          <mxGeometry x="1" y="1155.5" width="230" height="20" as="geometry" />
        </mxCell>
        <mxCell id="TKbhqmxpsX92xjRi5uJJ-1165" value="" style="verticalLabelPosition=bottom;aspect=fixed;html=1;verticalAlign=top;strokeColor=none;align=center;outlineConnect=0;shape=mxgraph.citrix.switch;" parent="1" vertex="1">
          <mxGeometry x="21" y="1189" width="187.33" height="84.5" as="geometry" />
        </mxCell>
        <mxCell id="TKbhqmxpsX92xjRi5uJJ-1166" value="" style="endArrow=classic;html=1;strokeWidth=4;fillColor=#ffe6cc;strokeColor=#d79b00;exitX=0.5;exitY=1;exitDx=0;exitDy=0;" parent="1" source="OP0uMOmqRfhRsHybBiB3-162" edge="1">
          <mxGeometry x="290" y="1224" width="50" height="50" as="geometry">
            <mxPoint x="191" y="1418" as="sourcePoint" />
            <mxPoint x="111" y="1308" as="targetPoint" />
            <Array as="points">
              <mxPoint x="191" y="1478" />
              <mxPoint x="111" y="1478" />
              <mxPoint x="111" y="1368" />
            </Array>
          </mxGeometry>
        </mxCell>
        <mxCell id="TKbhqmxpsX92xjRi5uJJ-1172" value="&lt;span&gt;Out-of-Band&lt;br&gt;Management Switch&lt;br&gt;&lt;/span&gt;" style="text;html=1;strokeColor=none;fillColor=none;align=center;verticalAlign=middle;whiteSpace=wrap;rounded=0;shadow=0;fontSize=15;fontStyle=0;fontColor=#D79B00;" parent="1" vertex="1">
          <mxGeometry x="21" y="1277" width="188.66" height="30" as="geometry" />
        </mxCell>
        <mxCell id="KvPRdfRzhTT3knoHsxit-52" value="&lt;span style=&quot;&quot;&gt;Node 4&lt;/span&gt;" style="text;html=1;strokeColor=none;fillColor=none;align=center;verticalAlign=middle;whiteSpace=wrap;rounded=0;shadow=0;fontSize=15;fontStyle=1" parent="1" vertex="1">
          <mxGeometry x="139.83" y="1888" width="200.17" height="20" as="geometry" />
        </mxCell>
        <mxCell id="KvPRdfRzhTT3knoHsxit-48" value="" style="endArrow=classic;html=1;strokeWidth=4;fillColor=#ffe6cc;strokeColor=#d79b00;exitX=0.5;exitY=1;exitDx=0;exitDy=0;" parent="1" source="OP0uMOmqRfhRsHybBiB3-143" edge="1">
          <mxGeometry x="290" y="1523.5" width="50" height="50" as="geometry">
            <mxPoint x="191" y="1728" as="sourcePoint" />
            <mxPoint x="111" y="1308" as="targetPoint" />
            <Array as="points">
              <mxPoint x="191" y="1779" />
              <mxPoint x="110" y="1779" />
              <mxPoint x="111" y="1358" />
            </Array>
          </mxGeometry>
        </mxCell>
        <mxCell id="KvPRdfRzhTT3knoHsxit-49" value="" style="endArrow=classic;html=1;strokeWidth=4;fillColor=#ffe6cc;strokeColor=#d79b00;exitX=0.5;exitY=1;exitDx=0;exitDy=0;" parent="1" source="OP0uMOmqRfhRsHybBiB3-115" edge="1">
          <mxGeometry x="290" y="1673.5" width="50" height="50" as="geometry">
            <mxPoint x="191" y="1878" as="sourcePoint" />
            <mxPoint x="111" y="1308" as="targetPoint" />
            <Array as="points">
              <mxPoint x="191" y="1928" />
              <mxPoint x="110" y="1928" />
              <mxPoint x="111" y="1368" />
            </Array>
          </mxGeometry>
        </mxCell>
        <mxCell id="KvPRdfRzhTT3knoHsxit-47" value="" style="endArrow=classic;html=1;strokeWidth=4;fillColor=#ffe6cc;strokeColor=#d79b00;exitX=0.5;exitY=1;exitDx=0;exitDy=0;" parent="1" source="OP0uMOmqRfhRsHybBiB3-149" edge="1">
          <mxGeometry x="290" y="1373.5" width="50" height="50" as="geometry">
            <mxPoint x="181" y="1568" as="sourcePoint" />
            <mxPoint x="111" y="1308" as="targetPoint" />
            <Array as="points">
              <mxPoint x="191" y="1628" />
              <mxPoint x="110" y="1628" />
              <mxPoint x="111" y="1468" />
            </Array>
          </mxGeometry>
        </mxCell>
        <mxCell id="OP0uMOmqRfhRsHybBiB3-113" value="" style="group" parent="1" vertex="1" connectable="0">
          <mxGeometry x="175.5" y="1860" width="30.5" height="23" as="geometry" />
        </mxCell>
        <mxCell id="OP0uMOmqRfhRsHybBiB3-114" value="" style="group" parent="OP0uMOmqRfhRsHybBiB3-113" vertex="1" connectable="0">
          <mxGeometry y="0.1" width="30.500000000000007" height="25" as="geometry" />
        </mxCell>
        <mxCell id="OP0uMOmqRfhRsHybBiB3-115" value="" style="rounded=0;whiteSpace=wrap;html=1;strokeWidth=0.5;fillColor=#ffe6cc;strokeColor=none;" parent="OP0uMOmqRfhRsHybBiB3-114" vertex="1">
          <mxGeometry y="6.413043478260869" width="30.500000000000007" height="18.586956521739133" as="geometry" />
        </mxCell>
        <mxCell id="OP0uMOmqRfhRsHybBiB3-116" value="" style="rounded=0;whiteSpace=wrap;html=1;strokeWidth=0.5;fillColor=#ffe6cc;strokeColor=none;" parent="OP0uMOmqRfhRsHybBiB3-114" vertex="1">
          <mxGeometry x="6.606498194945848" y="2.0652173913043463" width="17.2870036101083" height="8.26086956521739" as="geometry" />
        </mxCell>
        <mxCell id="OP0uMOmqRfhRsHybBiB3-117" value="" style="rounded=0;whiteSpace=wrap;html=1;strokeWidth=0.5;fillColor=#ffe6cc;strokeColor=none;" parent="OP0uMOmqRfhRsHybBiB3-114" vertex="1">
          <mxGeometry x="9.359205776173289" width="11.671480144404335" height="8.26086956521739" as="geometry" />
        </mxCell>
        <mxCell id="OP0uMOmqRfhRsHybBiB3-133" value="&lt;span style=&quot;&quot;&gt;Management&lt;br&gt;Port&lt;br&gt;&lt;/span&gt;" style="text;html=1;strokeColor=none;fillColor=none;align=center;verticalAlign=middle;whiteSpace=wrap;rounded=0;shadow=0;fontSize=15;fontStyle=0" parent="1" vertex="1">
          <mxGeometry x="149.75" y="1832" width="81" height="20" as="geometry" />
        </mxCell>
        <mxCell id="KvPRdfRzhTT3knoHsxit-50" value="&lt;span style=&quot;&quot;&gt;Node 2&lt;/span&gt;" style="text;html=1;strokeColor=none;fillColor=none;align=center;verticalAlign=middle;whiteSpace=wrap;rounded=0;shadow=0;fontSize=15;fontStyle=1" parent="1" vertex="1">
          <mxGeometry x="139.83" y="1587" width="200.17" height="20" as="geometry" />
        </mxCell>
        <mxCell id="OP0uMOmqRfhRsHybBiB3-141" value="" style="group" parent="1" vertex="1" connectable="0">
          <mxGeometry x="175.5" y="1710" width="30.5" height="23" as="geometry" />
        </mxCell>
        <mxCell id="OP0uMOmqRfhRsHybBiB3-142" value="" style="group" parent="OP0uMOmqRfhRsHybBiB3-141" vertex="1" connectable="0">
          <mxGeometry y="0.1" width="30.500000000000007" height="25" as="geometry" />
        </mxCell>
        <mxCell id="OP0uMOmqRfhRsHybBiB3-143" value="" style="rounded=0;whiteSpace=wrap;html=1;strokeWidth=0.5;fillColor=#ffe6cc;strokeColor=none;" parent="OP0uMOmqRfhRsHybBiB3-142" vertex="1">
          <mxGeometry y="6.413043478260869" width="30.500000000000007" height="18.586956521739133" as="geometry" />
        </mxCell>
        <mxCell id="OP0uMOmqRfhRsHybBiB3-144" value="" style="rounded=0;whiteSpace=wrap;html=1;strokeWidth=0.5;fillColor=#ffe6cc;strokeColor=none;" parent="OP0uMOmqRfhRsHybBiB3-142" vertex="1">
          <mxGeometry x="6.606498194945848" y="2.0652173913043463" width="17.2870036101083" height="8.26086956521739" as="geometry" />
        </mxCell>
        <mxCell id="OP0uMOmqRfhRsHybBiB3-145" value="" style="rounded=0;whiteSpace=wrap;html=1;strokeWidth=0.5;fillColor=#ffe6cc;strokeColor=none;" parent="OP0uMOmqRfhRsHybBiB3-142" vertex="1">
          <mxGeometry x="9.359205776173289" width="11.671480144404335" height="8.26086956521739" as="geometry" />
        </mxCell>
        <mxCell id="OP0uMOmqRfhRsHybBiB3-147" value="" style="group" parent="1" vertex="1" connectable="0">
          <mxGeometry x="175.5" y="1560" width="30.5" height="23" as="geometry" />
        </mxCell>
        <mxCell id="OP0uMOmqRfhRsHybBiB3-148" value="" style="group" parent="OP0uMOmqRfhRsHybBiB3-147" vertex="1" connectable="0">
          <mxGeometry y="0.1" width="30.500000000000007" height="25" as="geometry" />
        </mxCell>
        <mxCell id="OP0uMOmqRfhRsHybBiB3-149" value="" style="rounded=0;whiteSpace=wrap;html=1;strokeWidth=0.5;fillColor=#ffe6cc;strokeColor=none;" parent="OP0uMOmqRfhRsHybBiB3-148" vertex="1">
          <mxGeometry y="6.413043478260869" width="30.500000000000007" height="18.586956521739133" as="geometry" />
        </mxCell>
        <mxCell id="OP0uMOmqRfhRsHybBiB3-150" value="" style="rounded=0;whiteSpace=wrap;html=1;strokeWidth=0.5;fillColor=#ffe6cc;strokeColor=none;" parent="OP0uMOmqRfhRsHybBiB3-148" vertex="1">
          <mxGeometry x="6.606498194945848" y="2.0652173913043463" width="17.2870036101083" height="8.26086956521739" as="geometry" />
        </mxCell>
        <mxCell id="OP0uMOmqRfhRsHybBiB3-151" value="" style="rounded=0;whiteSpace=wrap;html=1;strokeWidth=0.5;fillColor=#ffe6cc;strokeColor=none;" parent="OP0uMOmqRfhRsHybBiB3-148" vertex="1">
          <mxGeometry x="9.359205776173289" width="11.671480144404335" height="8.26086956521739" as="geometry" />
        </mxCell>
        <mxCell id="OP0uMOmqRfhRsHybBiB3-160" value="" style="group" parent="1" vertex="1" connectable="0">
          <mxGeometry x="175.5" y="1410" width="30.5" height="23" as="geometry" />
        </mxCell>
        <mxCell id="OP0uMOmqRfhRsHybBiB3-161" value="" style="group" parent="OP0uMOmqRfhRsHybBiB3-160" vertex="1" connectable="0">
          <mxGeometry y="0.1" width="30.500000000000007" height="25" as="geometry" />
        </mxCell>
        <mxCell id="OP0uMOmqRfhRsHybBiB3-162" value="" style="rounded=0;whiteSpace=wrap;html=1;strokeWidth=0.5;fillColor=#ffe6cc;strokeColor=none;" parent="OP0uMOmqRfhRsHybBiB3-161" vertex="1">
          <mxGeometry y="6.413043478260869" width="30.500000000000007" height="18.586956521739133" as="geometry" />
        </mxCell>
        <mxCell id="OP0uMOmqRfhRsHybBiB3-163" value="" style="rounded=0;whiteSpace=wrap;html=1;strokeWidth=0.5;fillColor=#ffe6cc;strokeColor=none;" parent="OP0uMOmqRfhRsHybBiB3-161" vertex="1">
          <mxGeometry x="6.606498194945848" y="2.0652173913043463" width="17.2870036101083" height="8.26086956521739" as="geometry" />
        </mxCell>
        <mxCell id="OP0uMOmqRfhRsHybBiB3-164" value="" style="rounded=0;whiteSpace=wrap;html=1;strokeWidth=0.5;fillColor=#ffe6cc;strokeColor=none;" parent="OP0uMOmqRfhRsHybBiB3-161" vertex="1">
          <mxGeometry x="9.359205776173289" width="11.671480144404335" height="8.26086956521739" as="geometry" />
        </mxCell>
        <mxCell id="OP0uMOmqRfhRsHybBiB3-216" value="" style="group" parent="1" vertex="1" connectable="0">
          <mxGeometry x="280.00370002510954" y="1328" width="383.99629997489046" height="577.5" as="geometry" />
        </mxCell>
        <mxCell id="OP0uMOmqRfhRsHybBiB3-173" value="" style="endArrow=classic;html=1;strokeWidth=4;fillColor=#d5e8d4;exitX=0.25;exitY=0;exitDx=0;exitDy=0;strokeColor=#82b366;" parent="OP0uMOmqRfhRsHybBiB3-216" source="OP0uMOmqRfhRsHybBiB3-185" edge="1">
          <mxGeometry x="12.33629997489038" width="50" height="50" as="geometry">
            <mxPoint x="11.97752126402861" y="506.3135212765958" as="sourcePoint" />
            <mxPoint x="169.99629997489046" y="169" as="targetPoint" />
            <Array as="points">
              <mxPoint x="10.33629997489038" y="446" />
              <mxPoint x="119.99629997489046" y="446" />
              <mxPoint x="119.99629997489046" y="169" />
            </Array>
          </mxGeometry>
        </mxCell>
        <mxCell id="OP0uMOmqRfhRsHybBiB3-174" value="" style="verticalLabelPosition=bottom;aspect=fixed;html=1;verticalAlign=top;strokeColor=none;align=center;outlineConnect=0;shape=mxgraph.citrix.switch;" parent="OP0uMOmqRfhRsHybBiB3-216" vertex="1">
          <mxGeometry x="170.33629997489027" y="425" width="187.33" height="84.5" as="geometry" />
        </mxCell>
        <mxCell id="OP0uMOmqRfhRsHybBiB3-175" value="" style="verticalLabelPosition=bottom;aspect=fixed;html=1;verticalAlign=top;strokeColor=none;align=center;outlineConnect=0;shape=mxgraph.citrix.switch;" parent="OP0uMOmqRfhRsHybBiB3-216" vertex="1">
          <mxGeometry x="170.66629997489042" y="127.25" width="187.33" height="84.5" as="geometry" />
        </mxCell>
        <mxCell id="OP0uMOmqRfhRsHybBiB3-176" value="&lt;span&gt;Front-End Redundant Switches&lt;br&gt;Connect to Local Network&lt;br&gt;&lt;/span&gt;" style="text;html=1;strokeColor=none;fillColor=none;align=center;verticalAlign=middle;whiteSpace=wrap;rounded=0;shadow=0;fontSize=15;fontStyle=0;fontColor=#66CC00;" parent="OP0uMOmqRfhRsHybBiB3-216" vertex="1">
          <mxGeometry x="163.99629997489046" y="237.5" width="220" height="55.5" as="geometry" />
        </mxCell>
        <mxCell id="OP0uMOmqRfhRsHybBiB3-177" value="&lt;span&gt;Back-End Redundant Switches&lt;br&gt;Connect Nodes Together&lt;br&gt;&lt;/span&gt;" style="text;html=1;strokeColor=none;fillColor=none;align=center;verticalAlign=middle;whiteSpace=wrap;rounded=0;shadow=0;fontSize=15;fontStyle=0;fontColor=#0066CC;" parent="OP0uMOmqRfhRsHybBiB3-216" vertex="1">
          <mxGeometry x="168.99629997489035" y="524" width="210" height="53.5" as="geometry" />
        </mxCell>
        <mxCell id="OP0uMOmqRfhRsHybBiB3-178" value="" style="verticalLabelPosition=bottom;aspect=fixed;html=1;verticalAlign=top;strokeColor=none;align=center;outlineConnect=0;shape=mxgraph.citrix.switch;" parent="OP0uMOmqRfhRsHybBiB3-216" vertex="1">
          <mxGeometry x="187.99629997489035" y="153" width="187.33" height="84.5" as="geometry" />
        </mxCell>
        <mxCell id="OP0uMOmqRfhRsHybBiB3-179" value="" style="verticalLabelPosition=bottom;aspect=fixed;html=1;verticalAlign=top;strokeColor=none;align=center;outlineConnect=0;shape=mxgraph.citrix.switch;" parent="OP0uMOmqRfhRsHybBiB3-216" vertex="1">
          <mxGeometry x="188.99629997489035" y="441.25" width="187.33" height="84.5" as="geometry" />
        </mxCell>
        <mxCell id="OP0uMOmqRfhRsHybBiB3-180" value="&lt;span&gt;1&lt;/span&gt;" style="text;html=1;strokeColor=#82b366;fillColor=#d5e8d4;align=center;verticalAlign=middle;whiteSpace=wrap;rounded=0;shadow=0;fontSize=15;fontStyle=1;strokeWidth=1;" parent="OP0uMOmqRfhRsHybBiB3-216" vertex="1">
          <mxGeometry x="47.31121836899797" y="357.5" width="42.02773205367854" height="20.5" as="geometry" />
        </mxCell>
        <mxCell id="OP0uMOmqRfhRsHybBiB3-181" value="&lt;span&gt;2&lt;/span&gt;" style="text;html=1;strokeColor=#82b366;fillColor=#d5e8d4;align=center;verticalAlign=middle;whiteSpace=wrap;rounded=0;shadow=0;fontSize=15;fontStyle=1;strokeWidth=1;" parent="OP0uMOmqRfhRsHybBiB3-216" vertex="1">
          <mxGeometry x="0.28018488035763767" y="357.5" width="42.02773205367854" height="20.5" as="geometry" />
        </mxCell>
        <mxCell id="OP0uMOmqRfhRsHybBiB3-182" value="&lt;span&gt;1&lt;/span&gt;" style="text;html=1;strokeColor=#6c8ebf;fillColor=#dae8fc;align=center;verticalAlign=middle;whiteSpace=wrap;rounded=0;shadow=0;fontSize=15;fontStyle=1;strokeWidth=1;" parent="OP0uMOmqRfhRsHybBiB3-216" vertex="1">
          <mxGeometry x="47.31121836899797" y="400" width="42.02773205367854" height="20.5" as="geometry" />
        </mxCell>
        <mxCell id="OP0uMOmqRfhRsHybBiB3-183" value="&lt;span&gt;2&lt;/span&gt;" style="text;html=1;strokeColor=#6c8ebf;fillColor=#dae8fc;align=center;verticalAlign=middle;whiteSpace=wrap;rounded=0;shadow=0;fontSize=15;fontStyle=1;strokeWidth=1;" parent="OP0uMOmqRfhRsHybBiB3-216" vertex="1">
          <mxGeometry y="400" width="42.02773205367854" height="20.5" as="geometry" />
        </mxCell>
        <mxCell id="OP0uMOmqRfhRsHybBiB3-184" value="&lt;span&gt;1&lt;/span&gt;" style="text;html=1;strokeColor=#82b366;fillColor=#d5e8d4;align=center;verticalAlign=middle;whiteSpace=wrap;rounded=0;shadow=0;fontSize=15;fontStyle=1;strokeWidth=1;" parent="OP0uMOmqRfhRsHybBiB3-216" vertex="1">
          <mxGeometry x="47.31121836899797" y="506.5" width="42.02773205367854" height="20.5" as="geometry" />
        </mxCell>
        <mxCell id="OP0uMOmqRfhRsHybBiB3-185" value="&lt;span&gt;2&lt;/span&gt;" style="text;html=1;strokeColor=#82b366;fillColor=#d5e8d4;align=center;verticalAlign=middle;whiteSpace=wrap;rounded=0;shadow=0;fontSize=15;fontStyle=1;strokeWidth=1;" parent="OP0uMOmqRfhRsHybBiB3-216" vertex="1">
          <mxGeometry x="0.28018488035763767" y="506.5" width="42.02773205367854" height="20.5" as="geometry" />
        </mxCell>
        <mxCell id="OP0uMOmqRfhRsHybBiB3-186" value="&lt;span&gt;1&lt;/span&gt;" style="text;html=1;strokeColor=#6c8ebf;fillColor=#dae8fc;align=center;verticalAlign=middle;whiteSpace=wrap;rounded=0;shadow=0;fontSize=15;fontStyle=1;strokeWidth=1;" parent="OP0uMOmqRfhRsHybBiB3-216" vertex="1">
          <mxGeometry x="47.31121836899797" y="549" width="42.02773205367854" height="20.5" as="geometry" />
        </mxCell>
        <mxCell id="OP0uMOmqRfhRsHybBiB3-187" value="&lt;span&gt;2&lt;/span&gt;" style="text;html=1;strokeColor=#6c8ebf;fillColor=#dae8fc;align=center;verticalAlign=middle;whiteSpace=wrap;rounded=0;shadow=0;fontSize=15;fontStyle=1;strokeWidth=1;" parent="OP0uMOmqRfhRsHybBiB3-216" vertex="1">
          <mxGeometry y="549" width="42.02773205367854" height="20.5" as="geometry" />
        </mxCell>
        <mxCell id="OP0uMOmqRfhRsHybBiB3-188" value="" style="endArrow=classic;html=1;strokeWidth=4;fillColor=#d5e8d4;exitX=0.25;exitY=0;exitDx=0;exitDy=0;strokeColor=#82b366;" parent="OP0uMOmqRfhRsHybBiB3-216" source="OP0uMOmqRfhRsHybBiB3-208" edge="1">
          <mxGeometry x="12.33629997489038" width="50" height="50" as="geometry">
            <mxPoint x="11.977521264029065" y="60.58308297872327" as="sourcePoint" />
            <mxPoint x="169.99629997489046" y="169" as="targetPoint" />
            <Array as="points">
              <mxPoint x="10.33629997489038" />
              <mxPoint x="119.99629997489046" />
              <mxPoint x="119.99629997489046" y="169" />
            </Array>
          </mxGeometry>
        </mxCell>
        <mxCell id="OP0uMOmqRfhRsHybBiB3-189" value="" style="endArrow=classic;html=1;strokeWidth=4;fillColor=#d5e8d4;exitX=0.25;exitY=0;exitDx=0;exitDy=0;strokeColor=#82b366;" parent="OP0uMOmqRfhRsHybBiB3-216" source="OP0uMOmqRfhRsHybBiB3-207" edge="1">
          <mxGeometry x="12.33629997489038" width="50" height="50" as="geometry">
            <mxPoint x="86.7230860268337" y="60.58308297872327" as="sourcePoint" />
            <mxPoint x="169.99629997489046" y="169" as="targetPoint" />
            <Array as="points">
              <mxPoint x="57.33629997489038" />
              <mxPoint x="119.99629997489046" />
              <mxPoint x="119.99629997489046" y="169" />
            </Array>
          </mxGeometry>
        </mxCell>
        <mxCell id="OP0uMOmqRfhRsHybBiB3-190" value="" style="endArrow=classic;html=1;strokeWidth=4;fillColor=#d5e8d4;exitX=0.25;exitY=0;exitDx=0;exitDy=0;strokeColor=#82b366;" parent="OP0uMOmqRfhRsHybBiB3-216" source="OP0uMOmqRfhRsHybBiB3-204" edge="1">
          <mxGeometry x="12.33629997489038" width="50" height="50" as="geometry">
            <mxPoint x="11.977521264029065" y="209.3384021276595" as="sourcePoint" />
            <mxPoint x="169.99629997489046" y="169" as="targetPoint" />
            <Array as="points">
              <mxPoint x="10.33629997489038" y="149" />
              <mxPoint x="119.99629997489046" y="149" />
              <mxPoint x="119.99629997489046" y="169" />
            </Array>
          </mxGeometry>
        </mxCell>
        <mxCell id="OP0uMOmqRfhRsHybBiB3-191" value="" style="endArrow=classic;html=1;strokeWidth=4;fillColor=#d5e8d4;exitX=0.25;exitY=0;exitDx=0;exitDy=0;strokeColor=#82b366;" parent="OP0uMOmqRfhRsHybBiB3-216" source="OP0uMOmqRfhRsHybBiB3-203" edge="1">
          <mxGeometry x="12.33629997489038" width="50" height="50" as="geometry">
            <mxPoint x="86.7230860268337" y="209.3384021276595" as="sourcePoint" />
            <mxPoint x="169.99629997489046" y="169" as="targetPoint" />
            <Array as="points">
              <mxPoint x="57.33629997489038" y="149" />
              <mxPoint x="119.99629997489046" y="149" />
              <mxPoint x="119.99629997489046" y="169" />
            </Array>
          </mxGeometry>
        </mxCell>
        <mxCell id="OP0uMOmqRfhRsHybBiB3-192" value="" style="endArrow=classic;html=1;strokeWidth=4;fillColor=#d5e8d4;exitX=0.25;exitY=0;exitDx=0;exitDy=0;strokeColor=#82b366;" parent="OP0uMOmqRfhRsHybBiB3-216" source="OP0uMOmqRfhRsHybBiB3-181" edge="1">
          <mxGeometry x="12.33629997489038" width="50" height="50" as="geometry">
            <mxPoint x="11.97752126402861" y="357.55820212765957" as="sourcePoint" />
            <mxPoint x="169.99629997489046" y="169" as="targetPoint" />
            <Array as="points">
              <mxPoint x="10.33629997489038" y="297" />
              <mxPoint x="119.99629997489046" y="297" />
              <mxPoint x="119.99629997489046" y="169" />
            </Array>
          </mxGeometry>
        </mxCell>
        <mxCell id="OP0uMOmqRfhRsHybBiB3-193" value="" style="endArrow=classic;html=1;strokeWidth=4;fillColor=#d5e8d4;exitX=0.25;exitY=0;exitDx=0;exitDy=0;strokeColor=#82b366;" parent="OP0uMOmqRfhRsHybBiB3-216" source="OP0uMOmqRfhRsHybBiB3-180" edge="1">
          <mxGeometry x="12.33629997489038" width="50" height="50" as="geometry">
            <mxPoint x="86.7230860268337" y="357.55820212765957" as="sourcePoint" />
            <mxPoint x="169.99629997489046" y="169" as="targetPoint" />
            <Array as="points">
              <mxPoint x="57.33629997489038" y="297" />
              <mxPoint x="119.99629997489046" y="297" />
              <mxPoint x="119.99629997489046" y="169" />
            </Array>
          </mxGeometry>
        </mxCell>
        <mxCell id="OP0uMOmqRfhRsHybBiB3-194" value="" style="endArrow=classic;html=1;strokeWidth=4;fillColor=#dae8fc;exitX=0.75;exitY=0;exitDx=0;exitDy=0;strokeColor=#6c8ebf;jumpStyle=arc;jumpSize=9;" parent="OP0uMOmqRfhRsHybBiB3-216" source="OP0uMOmqRfhRsHybBiB3-183" edge="1">
          <mxGeometry x="12.33629997489038" width="50" height="50" as="geometry">
            <mxPoint x="36.275435729297214" y="393.12064042553175" as="sourcePoint" />
            <mxPoint x="169.99629997489046" y="467" as="targetPoint" />
            <Array as="points">
              <mxPoint x="31.33629997489038" y="317" />
              <mxPoint x="99.99629997489046" y="317" />
              <mxPoint x="99.99629997489046" y="467" />
            </Array>
          </mxGeometry>
        </mxCell>
        <mxCell id="OP0uMOmqRfhRsHybBiB3-195" value="" style="endArrow=classic;html=1;strokeWidth=4;fillColor=#dae8fc;exitX=0.75;exitY=0;exitDx=0;exitDy=0;strokeColor=#6c8ebf;jumpStyle=arc;jumpSize=9;" parent="OP0uMOmqRfhRsHybBiB3-216" source="OP0uMOmqRfhRsHybBiB3-205" edge="1">
          <mxGeometry x="12.33629997489038" width="50" height="50" as="geometry">
            <mxPoint x="124.10147432559347" y="244.36532127659552" as="sourcePoint" />
            <mxPoint x="169.99629997489046" y="467" as="targetPoint" />
            <Array as="points">
              <mxPoint x="78.33629997489038" y="169" />
              <mxPoint x="99.99629997489046" y="169" />
              <mxPoint x="99.99629997489046" y="467" />
            </Array>
          </mxGeometry>
        </mxCell>
        <mxCell id="OP0uMOmqRfhRsHybBiB3-196" value="" style="endArrow=classic;html=1;strokeWidth=4;fillColor=#dae8fc;exitX=0.75;exitY=0;exitDx=0;exitDy=0;strokeColor=#6c8ebf;jumpStyle=arc;jumpSize=9;" parent="OP0uMOmqRfhRsHybBiB3-216" source="OP0uMOmqRfhRsHybBiB3-206" edge="1">
          <mxGeometry x="12.33629997489038" width="50" height="50" as="geometry">
            <mxPoint x="36.10725820858124" y="244.36532127659552" as="sourcePoint" />
            <mxPoint x="169.99629997489046" y="467" as="targetPoint" />
            <Array as="points">
              <mxPoint x="31.33629997489038" y="169" />
              <mxPoint x="99.99629997489046" y="169" />
              <mxPoint x="99.99629997489046" y="467" />
            </Array>
          </mxGeometry>
        </mxCell>
        <mxCell id="OP0uMOmqRfhRsHybBiB3-197" value="" style="endArrow=classic;html=1;strokeWidth=4;fillColor=#dae8fc;exitX=0.75;exitY=0;exitDx=0;exitDy=0;strokeColor=#6c8ebf;jumpStyle=arc;jumpSize=9;" parent="OP0uMOmqRfhRsHybBiB3-216" source="OP0uMOmqRfhRsHybBiB3-209" edge="1">
          <mxGeometry x="12.33629997489038" width="50" height="50" as="geometry">
            <mxPoint x="124.10147432559347" y="95.61000212765953" as="sourcePoint" />
            <mxPoint x="169.99629997489046" y="467" as="targetPoint" />
            <Array as="points">
              <mxPoint x="78.33629997489038" y="20" />
              <mxPoint x="99.99629997489046" y="20" />
              <mxPoint x="99.99629997489046" y="467" />
            </Array>
          </mxGeometry>
        </mxCell>
        <mxCell id="OP0uMOmqRfhRsHybBiB3-198" value="" style="endArrow=classic;html=1;strokeWidth=4;fillColor=#dae8fc;exitX=0.75;exitY=0;exitDx=0;exitDy=0;strokeColor=#6c8ebf;jumpStyle=arc;jumpSize=9;" parent="OP0uMOmqRfhRsHybBiB3-216" source="OP0uMOmqRfhRsHybBiB3-210" edge="1">
          <mxGeometry x="12.33629997489038" width="50" height="50" as="geometry">
            <mxPoint x="36.10725820858124" y="95.61000212765953" as="sourcePoint" />
            <mxPoint x="169.99629997489046" y="467" as="targetPoint" />
            <Array as="points">
              <mxPoint x="31.33629997489038" y="20" />
              <mxPoint x="99.99629997489046" y="20" />
              <mxPoint x="99.99629997489046" y="467" />
            </Array>
          </mxGeometry>
        </mxCell>
        <mxCell id="OP0uMOmqRfhRsHybBiB3-199" value="" style="endArrow=classic;html=1;strokeWidth=4;fillColor=#d5e8d4;exitX=0.25;exitY=0;exitDx=0;exitDy=0;strokeColor=#82b366;" parent="OP0uMOmqRfhRsHybBiB3-216" source="OP0uMOmqRfhRsHybBiB3-184" edge="1">
          <mxGeometry x="12.33629997489038" width="50" height="50" as="geometry">
            <mxPoint x="86.7230860268337" y="506.3135212765958" as="sourcePoint" />
            <mxPoint x="169.99629997489046" y="169" as="targetPoint" />
            <Array as="points">
              <mxPoint x="57.33629997489038" y="446" />
              <mxPoint x="119.99629997489046" y="446" />
              <mxPoint x="119.99629997489046" y="169" />
            </Array>
          </mxGeometry>
        </mxCell>
        <mxCell id="OP0uMOmqRfhRsHybBiB3-200" value="" style="endArrow=classic;html=1;strokeWidth=4;fillColor=#dae8fc;exitX=0.75;exitY=0;exitDx=0;exitDy=0;strokeColor=#6c8ebf;jumpStyle=arc;jumpSize=9;" parent="OP0uMOmqRfhRsHybBiB3-216" source="OP0uMOmqRfhRsHybBiB3-187" edge="1">
          <mxGeometry x="12.33629997489038" width="50" height="50" as="geometry">
            <mxPoint x="36.275435729297214" y="541.875959574468" as="sourcePoint" />
            <mxPoint x="169.99629997489046" y="467" as="targetPoint" />
            <Array as="points">
              <mxPoint x="31.33629997489038" y="467" />
            </Array>
          </mxGeometry>
        </mxCell>
        <mxCell id="OP0uMOmqRfhRsHybBiB3-201" value="" style="endArrow=classic;html=1;strokeWidth=4;fillColor=#dae8fc;exitX=0.75;exitY=0;exitDx=0;exitDy=0;strokeColor=#6c8ebf;jumpStyle=arc;jumpSize=9;" parent="OP0uMOmqRfhRsHybBiB3-216" source="OP0uMOmqRfhRsHybBiB3-182" edge="1">
          <mxGeometry x="12.33629997489038" width="50" height="50" as="geometry">
            <mxPoint x="124.26965184631013" y="393.12064042553175" as="sourcePoint" />
            <mxPoint x="169.99629997489046" y="467" as="targetPoint" />
            <Array as="points">
              <mxPoint x="78.33629997489038" y="317" />
              <mxPoint x="99.99629997489046" y="317" />
              <mxPoint x="99.99629997489046" y="467" />
            </Array>
          </mxGeometry>
        </mxCell>
        <mxCell id="OP0uMOmqRfhRsHybBiB3-202" value="" style="endArrow=classic;html=1;strokeWidth=4;fillColor=#dae8fc;exitX=0.75;exitY=0;exitDx=0;exitDy=0;strokeColor=#6c8ebf;jumpStyle=none;jumpSize=9;" parent="OP0uMOmqRfhRsHybBiB3-216" source="OP0uMOmqRfhRsHybBiB3-186" edge="1">
          <mxGeometry x="12.33629997489038" width="50" height="50" as="geometry">
            <mxPoint x="124.10147432559347" y="541.875959574468" as="sourcePoint" />
            <mxPoint x="169.99629997489046" y="467" as="targetPoint" />
            <Array as="points">
              <mxPoint x="78.33629997489038" y="467" />
            </Array>
          </mxGeometry>
        </mxCell>
        <mxCell id="OP0uMOmqRfhRsHybBiB3-203" value="&lt;span&gt;1&lt;/span&gt;" style="text;html=1;strokeColor=#82b366;fillColor=#d5e8d4;align=center;verticalAlign=middle;whiteSpace=wrap;rounded=0;shadow=0;fontSize=15;fontStyle=1;strokeWidth=1;" parent="OP0uMOmqRfhRsHybBiB3-216" vertex="1">
          <mxGeometry x="47.31121836899797" y="209.5" width="42.02773205367854" height="20.5" as="geometry" />
        </mxCell>
        <mxCell id="OP0uMOmqRfhRsHybBiB3-204" value="&lt;span&gt;2&lt;/span&gt;" style="text;html=1;strokeColor=#82b366;fillColor=#d5e8d4;align=center;verticalAlign=middle;whiteSpace=wrap;rounded=0;shadow=0;fontSize=15;fontStyle=1;strokeWidth=1;" parent="OP0uMOmqRfhRsHybBiB3-216" vertex="1">
          <mxGeometry x="0.28018488035763767" y="209.5" width="42.02773205367854" height="20.5" as="geometry" />
        </mxCell>
        <mxCell id="OP0uMOmqRfhRsHybBiB3-205" value="&lt;span&gt;1&lt;/span&gt;" style="text;html=1;strokeColor=#6c8ebf;fillColor=#dae8fc;align=center;verticalAlign=middle;whiteSpace=wrap;rounded=0;shadow=0;fontSize=15;fontStyle=1;strokeWidth=0.5;" parent="OP0uMOmqRfhRsHybBiB3-216" vertex="1">
          <mxGeometry x="47.31121836899797" y="252" width="42.02773205367854" height="20.5" as="geometry" />
        </mxCell>
        <mxCell id="OP0uMOmqRfhRsHybBiB3-206" value="&lt;span&gt;2&lt;/span&gt;" style="text;html=1;strokeColor=#6c8ebf;fillColor=#dae8fc;align=center;verticalAlign=middle;whiteSpace=wrap;rounded=0;shadow=0;fontSize=15;fontStyle=1;strokeWidth=1;" parent="OP0uMOmqRfhRsHybBiB3-216" vertex="1">
          <mxGeometry y="252" width="42.02773205367854" height="20.5" as="geometry" />
        </mxCell>
        <mxCell id="OP0uMOmqRfhRsHybBiB3-207" value="&lt;span&gt;1&lt;/span&gt;" style="text;html=1;strokeColor=#82b366;fillColor=#d5e8d4;align=center;verticalAlign=middle;whiteSpace=wrap;rounded=0;shadow=0;fontSize=15;fontStyle=1;strokeWidth=1;" parent="OP0uMOmqRfhRsHybBiB3-216" vertex="1">
          <mxGeometry x="47.31121836899797" y="60.5" width="42.02773205367854" height="20.5" as="geometry" />
        </mxCell>
        <mxCell id="OP0uMOmqRfhRsHybBiB3-208" value="&lt;span&gt;2&lt;/span&gt;" style="text;html=1;strokeColor=#82b366;fillColor=#d5e8d4;align=center;verticalAlign=middle;whiteSpace=wrap;rounded=0;shadow=0;fontSize=15;fontStyle=1;strokeWidth=1;" parent="OP0uMOmqRfhRsHybBiB3-216" vertex="1">
          <mxGeometry x="0.28018488035763767" y="60.5" width="42.02773205367854" height="20.5" as="geometry" />
        </mxCell>
        <mxCell id="OP0uMOmqRfhRsHybBiB3-209" value="&lt;span&gt;1&lt;/span&gt;" style="text;html=1;strokeColor=#6c8ebf;fillColor=#dae8fc;align=center;verticalAlign=middle;whiteSpace=wrap;rounded=0;shadow=0;fontSize=15;fontStyle=1;strokeWidth=1;" parent="OP0uMOmqRfhRsHybBiB3-216" vertex="1">
          <mxGeometry x="47.31121836899797" y="103" width="42.02773205367854" height="20.5" as="geometry" />
        </mxCell>
        <mxCell id="OP0uMOmqRfhRsHybBiB3-210" value="&lt;span&gt;2&lt;/span&gt;" style="text;html=1;strokeColor=#6c8ebf;fillColor=#dae8fc;align=center;verticalAlign=middle;whiteSpace=wrap;rounded=0;shadow=0;fontSize=15;fontStyle=1;strokeWidth=1;" parent="OP0uMOmqRfhRsHybBiB3-216" vertex="1">
          <mxGeometry y="103" width="42.02773205367854" height="20.5" as="geometry" />
        </mxCell>
        <mxCell id="OP0uMOmqRfhRsHybBiB3-159" value="&lt;span style=&quot;&quot;&gt;Management&lt;br&gt;Port&lt;br&gt;&lt;/span&gt;" style="text;html=1;strokeColor=none;fillColor=none;align=center;verticalAlign=middle;whiteSpace=wrap;rounded=0;shadow=0;fontSize=15;fontStyle=0" parent="1" vertex="1">
          <mxGeometry x="149.75" y="1372.5" width="81" height="20" as="geometry" />
        </mxCell>
        <mxCell id="OP0uMOmqRfhRsHybBiB3-146" value="&lt;span style=&quot;&quot;&gt;Management&lt;br&gt;Port&lt;br&gt;&lt;/span&gt;" style="text;html=1;strokeColor=none;fillColor=none;align=center;verticalAlign=middle;whiteSpace=wrap;rounded=0;shadow=0;fontSize=15;fontStyle=0" parent="1" vertex="1">
          <mxGeometry x="149.75" y="1523" width="81" height="20" as="geometry" />
        </mxCell>
        <mxCell id="OP0uMOmqRfhRsHybBiB3-140" value="&lt;span style=&quot;&quot;&gt;Management&lt;br&gt;Port&lt;br&gt;&lt;/span&gt;" style="text;html=1;strokeColor=none;fillColor=none;align=center;verticalAlign=middle;whiteSpace=wrap;rounded=0;shadow=0;fontSize=15;fontStyle=0" parent="1" vertex="1">
          <mxGeometry x="150.75" y="1676.25" width="81" height="20" as="geometry" />
        </mxCell>
      </root>
    </mxGraphModel>
  </diagram>
</mxfile>
